<svg width="2053" height="1214" viewBox="0 0 2053 1214" fill="none" xmlns="http://www.w3.org/2000/svg">
<path d="M625.759 1C649.759 0.999344 873.798 20.8798 1213.76 62.0012C1553.72 103.123 1847.76 151.001 2029.26 326.501C2110.78 405.329 1960.26 506.501 1818.26 526.001C1599.35 556.062 1512.26 563.501 1304.76 589.001C1106.75 613.335 877.608 607.588 846.759 802.501C830.222 906.991 1127.26 908.501 910.759 1053.5C799.925 1127.73 627.259 1172.5 385.259 1213" stroke="#CCCCCC" stroke-opacity="0.8"/>
<path d="M89.2595 1C149.568 20.5 292.49 172 370.49 320.5C407.514 390.988 382.49 447.5 237.68 511.28C198.371 528.594 49.3532 591.511 20.2595 617C-7.50363 641.324 -22.7405 742 101.466 787.667C199.521 823.719 140.795 893.625 110.439 1038.57C94.8992 1112.77 70.6896 1157.52 36.7587 1198" stroke="#CCCCCC" stroke-opacity="0.8"/>
<path d="M614.539 1C638.66 1.19053 859.301 21.5195 1193.64 62.9889C1527.97 104.458 1817.33 152.869 1996.03 326.383C2076.68 405.048 1928.62 505.344 1786.57 525.712C1571.18 555.523 1482.87 564.051 1278.87 589.55C1084.2 613.883 859.253 610.224 831.445 802.21C817.154 905.358 1107.22 908.21 894.366 1053.21C785.4 1127.44 615.645 1172.21 377.725 1212.71" stroke="#CCCCCC" stroke-opacity="0.8"/>
<path d="M603.318 1C627.559 1.38172 844.804 22.1591 1173.51 63.9767C1502.22 105.794 1786.9 154.737 1962.81 326.266C2042.59 404.766 1896.98 504.188 1754.87 525.424C1543.01 554.985 1453.49 564.6 1252.98 590.099C1061.65 614.432 840.898 612.859 816.13 801.919C804.086 903.725 1087.17 907.918 877.972 1052.92C770.875 1127.15 604.031 1171.91 370.19 1212.41" stroke="#CCCCCC" stroke-opacity="0.8"/>
<path d="M592.097 1C616.459 1.57291 830.308 22.7987 1153.39 64.9644C1476.47 107.13 1756.46 156.604 1929.58 326.148C2008.49 404.485 1865.35 503.031 1723.18 525.135C1514.84 554.446 1424.1 565.149 1227.1 590.648C1039.1 614.981 822.543 615.495 800.815 801.629C791.018 902.093 1067.13 907.626 861.578 1052.62C756.349 1126.85 592.416 1171.62 362.656 1212.12" stroke="#CCCCCC" stroke-opacity="0.8"/>
<path d="M580.877 1C605.359 1.7641 815.811 23.4383 1133.27 65.9521C1450.72 108.466 1726.03 158.472 1896.36 326.03C1974.39 404.204 1833.71 501.874 1691.49 524.846C1486.66 553.908 1394.72 565.698 1201.21 591.197C1016.55 615.53 804.188 618.13 785.501 801.338C777.951 900.46 1047.09 907.335 845.185 1052.33C741.824 1126.56 580.802 1171.33 355.122 1211.82" stroke="#CCCCCC" stroke-opacity="0.8"/>
<path d="M569.656 1C594.259 1.95529 801.314 24.0779 1113.14 66.9398C1424.97 109.802 1695.6 160.34 1863.13 325.913C1940.29 403.923 1802.07 500.717 1659.79 524.558C1458.49 553.369 1365.33 566.247 1175.32 591.746C994.003 616.079 785.833 620.766 770.186 801.047C764.883 898.827 1027.04 907.043 828.791 1052.04C727.299 1126.26 569.188 1171.03 347.587 1211.53" stroke="#CCCCCC" stroke-opacity="0.8"/>
<path d="M558.435 1C583.159 2.14648 786.817 24.7175 1093.02 67.9275C1399.22 111.138 1665.17 162.207 1829.9 325.795C1906.19 403.642 1770.43 499.56 1628.1 524.269C1430.32 552.83 1335.95 566.797 1149.43 592.295C971.453 616.628 767.478 623.401 754.871 800.756C751.815 897.194 1007 906.751 812.397 1051.74C712.774 1125.97 557.574 1170.74 340.052 1211.24" stroke="#CCCCCC" stroke-opacity="0.8"/>
<path d="M547.214 1C572.059 2.33767 772.321 25.3571 1072.9 68.9153C1373.48 112.473 1634.74 164.075 1796.68 325.677C1872.09 403.36 1738.79 498.403 1596.41 523.98C1402.15 552.292 1306.56 567.346 1123.55 592.844C948.904 617.176 749.123 626.037 739.556 800.465C738.747 895.562 986.954 906.459 796.004 1051.45C698.249 1125.68 545.96 1170.44 332.518 1210.94" stroke="#CCCCCC" stroke-opacity="0.8"/>
<path d="M535.993 1C560.959 2.52886 757.824 25.9967 1052.77 69.903C1347.73 113.809 1604.3 165.942 1763.45 325.56C1837.99 403.079 1707.16 497.246 1564.72 523.692C1373.98 551.753 1277.17 567.895 1097.66 593.393C926.355 617.725 730.768 628.672 724.241 800.174C725.679 893.929 966.911 906.168 779.61 1051.16C683.723 1125.38 534.345 1170.15 324.983 1210.65" stroke="#CCCCCC" stroke-opacity="0.8"/>
<path d="M524.772 1C549.858 2.72005 743.327 26.6363 1032.65 70.8907C1321.98 115.145 1573.87 167.81 1730.22 325.442C1803.89 402.798 1675.52 496.089 1533.02 523.403C1345.81 551.215 1247.79 568.444 1071.77 593.942C903.806 618.274 712.412 631.308 708.926 799.883C712.611 892.296 946.867 905.876 763.216 1050.87C669.198 1125.09 522.731 1169.86 317.449 1210.35" stroke="#CCCCCC" stroke-opacity="0.8"/>
<path d="M513.552 1C538.759 2.91124 728.83 27.276 1012.53 71.8784C1296.23 116.481 1543.44 169.678 1697 325.324C1769.8 402.517 1643.88 494.932 1501.33 523.115C1317.64 550.676 1218.4 568.993 1045.89 594.491C881.257 618.823 694.058 633.944 693.612 799.593C699.544 890.663 926.824 905.584 746.823 1050.57C654.673 1124.8 511.117 1169.56 309.915 1210.06" stroke="#CCCCCC" stroke-opacity="0.8"/>
<path d="M502.331 1C527.658 3.10243 714.333 27.9156 992.405 72.8661C1270.48 117.817 1513.01 171.545 1663.77 325.207C1735.7 402.236 1612.24 493.776 1469.64 522.826C1289.46 550.137 1189.02 569.543 1020 595.04C858.707 619.371 675.702 636.579 678.297 799.302C686.476 889.031 906.78 905.293 730.429 1050.28C640.148 1124.5 499.502 1169.27 302.38 1209.77" stroke="#CCCCCC" stroke-opacity="0.8"/>
<path d="M491.11 1C516.558 3.29362 699.837 28.5552 972.282 73.8539C1244.73 119.153 1482.58 173.413 1630.55 325.089C1701.6 401.955 1580.61 492.619 1437.94 522.537C1261.29 549.599 1159.63 570.092 994.11 595.589C836.158 619.92 657.347 639.215 662.982 799.011C673.408 887.398 886.736 905.001 714.035 1049.99C625.623 1124.21 487.888 1168.98 294.845 1209.47" stroke="#CCCCCC" stroke-opacity="0.8"/>
<path d="M479.89 1C505.458 3.48481 685.34 29.1948 952.159 74.8416C1218.98 120.488 1452.14 175.28 1597.32 324.971C1667.5 401.673 1548.97 491.462 1406.25 522.249C1233.12 549.06 1130.25 570.641 968.223 596.138C813.609 620.469 638.993 641.85 647.668 798.72C660.34 885.765 866.693 904.709 697.641 1049.69C611.098 1123.92 476.274 1168.68 287.311 1209.18" stroke="#CCCCCC" stroke-opacity="0.8"/>
<path d="M468.669 1C494.358 3.67599 670.843 29.8344 932.036 75.8293C1193.23 121.824 1421.71 177.148 1564.09 324.854C1633.4 401.392 1517.33 490.305 1374.56 521.96C1204.95 548.522 1100.86 571.19 942.335 596.687C791.06 621.018 620.637 644.486 632.353 798.429C647.272 884.132 846.649 904.417 681.248 1049.4C596.572 1123.62 464.659 1168.39 279.776 1208.88" stroke="#CCCCCC" stroke-opacity="0.8"/>
<path d="M457.448 1C483.258 3.86718 656.346 30.474 911.913 76.817C1167.48 123.16 1391.28 179.016 1530.87 324.736C1599.3 401.111 1485.69 489.148 1342.87 521.671C1176.78 547.983 1071.48 571.739 916.448 597.236C768.51 621.567 602.282 647.121 617.038 798.138C634.204 882.499 826.605 904.126 664.854 1049.11C582.047 1123.33 453.045 1168.09 272.242 1208.59" stroke="#CCCCCC" stroke-opacity="0.8"/>
<path d="M446.227 1C472.158 4.05837 641.85 31.1136 891.79 77.8048C1141.73 124.496 1360.85 180.883 1497.64 324.618C1565.21 400.83 1454.05 487.991 1311.17 521.383C1148.61 547.444 1042.09 572.289 890.561 597.785C745.961 622.116 583.927 649.757 601.723 797.847C621.137 880.867 806.562 903.834 648.46 1048.82C567.522 1123.04 441.431 1167.8 264.708 1208.3" stroke="#CCCCCC" stroke-opacity="0.8"/>
<path d="M435.006 1C461.058 4.24956 627.353 31.7532 871.667 78.7925C1115.98 125.832 1330.42 182.751 1464.42 324.501C1531.11 400.549 1422.42 486.834 1279.48 521.094C1120.44 546.906 1012.7 572.838 864.673 598.334C723.412 622.664 565.572 652.392 586.409 797.557C608.069 879.234 786.518 903.542 632.066 1048.52C552.997 1122.74 429.816 1167.51 257.173 1208" stroke="#CCCCCC" stroke-opacity="0.8"/>
<path d="M423.786 1C449.958 4.44075 612.856 32.3928 851.544 79.7802C1090.23 127.168 1299.98 184.619 1431.19 324.383C1497.01 400.267 1390.78 485.677 1247.79 520.805C1092.27 546.367 983.319 573.387 838.786 598.883C700.862 623.213 547.217 655.028 571.094 797.266C595.001 877.601 766.474 903.251 615.673 1048.23C538.471 1122.45 418.202 1167.21 249.638 1207.71" stroke="#CCCCCC" stroke-opacity="0.8"/>
<path d="M412.565 1C438.858 4.63194 598.359 33.0325 831.421 80.7679C1064.48 128.503 1269.55 186.486 1397.96 324.265C1462.91 399.986 1359.14 484.52 1216.09 520.517C1064.09 545.829 953.933 573.936 812.898 599.432C678.313 623.762 528.862 657.663 555.779 796.975C581.933 875.968 746.431 902.959 599.279 1047.94C523.946 1122.16 406.588 1166.92 242.104 1207.41" stroke="#CCCCCC" stroke-opacity="0.8"/>
<path d="M401.344 1C427.758 4.82313 583.862 33.6721 811.297 81.7556C1038.73 129.839 1239.12 188.354 1364.74 324.148C1428.81 399.705 1327.5 483.364 1184.4 520.228C1035.92 545.29 924.548 574.485 787.011 599.981C655.764 624.311 510.507 660.299 540.464 796.684C568.865 874.336 726.387 902.667 582.885 1047.64C509.421 1121.86 394.974 1166.63 234.569 1207.12" stroke="#CCCCCC" stroke-opacity="0.8"/>
<path d="M390.123 1C416.657 5.01432 569.365 34.3117 791.174 82.7434C1012.98 131.175 1208.69 190.221 1331.51 324.03C1394.71 399.424 1295.87 482.207 1152.71 519.939C1007.75 544.752 895.162 575.035 761.123 600.53C633.215 624.86 492.152 662.934 525.149 796.393C555.797 872.703 706.344 902.376 566.491 1047.35C494.896 1121.57 383.359 1166.33 227.035 1206.82" stroke="#CCCCCC" stroke-opacity="0.8"/>
<path d="M378.903 1C405.557 5.20551 554.869 34.9513 771.051 83.7311C987.234 132.511 1178.26 192.089 1298.29 323.912C1360.61 399.143 1264.23 481.05 1121.02 519.651C979.58 544.213 865.777 575.584 735.236 601.079C610.666 625.408 473.797 665.57 509.835 796.102C542.73 871.07 686.3 902.084 550.098 1047.06C480.371 1121.28 371.745 1166.04 219.5 1206.53" stroke="#CCCCCC" stroke-opacity="0.8"/>
<path d="M367.682 1C394.457 5.3967 540.372 35.5909 750.928 84.7188C961.484 133.847 1147.83 193.957 1265.06 323.795C1326.52 398.862 1232.59 479.893 1089.32 519.362C951.409 543.674 836.391 576.133 709.349 601.628C588.116 625.957 455.442 668.205 494.52 795.811C529.662 869.437 666.257 901.792 533.704 1046.77C465.846 1120.98 360.131 1165.74 211.966 1206.24" stroke="#CCCCCC" stroke-opacity="0.8"/>
<path d="M356.461 1C383.357 5.58789 525.875 36.2305 730.805 85.7065C935.735 135.183 1117.39 195.824 1231.83 323.677C1292.42 398.58 1200.95 478.736 1057.63 519.074C923.237 543.136 807.005 576.682 683.461 602.177C565.567 626.506 437.087 670.841 479.205 795.521C516.594 867.804 646.213 901.5 517.31 1046.47C451.32 1120.69 348.516 1165.45 204.431 1205.94" stroke="#CCCCCC" stroke-opacity="0.8"/>
<path d="M345.241 1C372.257 5.77908 511.379 36.8701 710.682 86.6943C909.986 136.518 1086.96 197.692 1198.61 323.559C1258.32 398.299 1169.31 477.579 1025.94 518.785C895.066 542.597 777.62 577.231 657.574 602.726C543.018 627.055 418.732 673.476 463.891 795.23C503.526 866.172 626.17 901.209 500.917 1046.18C436.795 1120.4 336.902 1165.16 196.897 1205.65" stroke="#CCCCCC" stroke-opacity="0.8"/>
<path d="M334.02 1C361.157 5.97027 496.882 37.5097 690.559 87.682C884.236 137.854 1056.53 199.56 1165.38 323.442C1224.22 398.018 1137.68 476.422 994.244 518.496C866.895 542.059 748.234 577.781 631.686 603.275C520.469 627.604 400.377 676.112 448.576 794.939C490.458 864.539 606.126 900.917 484.523 1045.89C422.27 1120.1 325.288 1164.86 189.362 1205.35" stroke="#CCCCCC" stroke-opacity="0.8"/>
<path d="M322.799 1C350.057 6.16146 482.385 38.1493 670.436 88.6697C858.487 139.19 1026.1 201.427 1132.16 323.324C1190.12 397.737 1106.04 475.265 962.551 518.208C838.724 541.52 718.849 578.33 605.799 603.824C497.92 628.152 382.022 678.747 433.261 794.648C477.391 862.906 586.083 900.625 468.13 1045.59C407.745 1119.81 313.674 1164.57 181.828 1205.06" stroke="#CCCCCC" stroke-opacity="0.8"/>
<path d="M311.578 1C338.957 6.35265 467.888 38.7889 650.313 89.6574C832.737 140.526 995.666 203.295 1098.93 323.206C1156.02 397.456 1074.4 474.108 930.858 517.919C810.552 540.981 689.463 578.879 579.912 604.373C475.37 628.701 363.667 681.383 417.946 794.357C464.323 861.273 566.039 900.334 451.736 1045.3C393.22 1119.52 302.059 1164.27 174.293 1204.77" stroke="#CCCCCC" stroke-opacity="0.8"/>
<path d="M300.357 1C327.857 6.54383 453.391 39.4286 630.19 90.6451C806.988 141.862 965.234 205.162 1065.7 323.089C1121.92 397.174 1042.76 472.952 899.165 517.63C782.381 540.443 660.077 579.428 554.024 604.922C452.821 629.25 345.312 684.018 402.631 794.066C451.255 859.641 545.995 900.042 435.342 1045.01C378.694 1119.22 290.445 1163.98 166.759 1204.47" stroke="#CCCCCC" stroke-opacity="0.8"/>
<path d="M289.137 1C316.757 6.73502 438.895 40.0682 610.067 91.6329C781.239 143.198 934.802 207.03 1032.48 322.971C1087.83 396.893 1011.13 471.795 867.473 517.342C754.21 539.904 630.692 579.977 528.137 605.471C430.272 629.799 326.957 686.654 387.317 793.775C438.187 858.008 525.952 899.75 418.949 1044.72C364.17 1118.93 278.831 1163.69 159.225 1204.18" stroke="#CCCCCC" stroke-opacity="0.8"/>
<path d="M277.915 1C305.656 6.92621 424.398 40.7078 589.943 92.6206C755.489 144.533 904.369 208.898 999.252 322.853C1053.73 396.612 979.487 470.638 835.779 517.053C726.038 539.366 601.306 580.527 502.249 606.02C407.722 630.348 308.601 689.29 372.002 793.484C425.119 856.375 505.908 899.459 402.554 1044.42C349.644 1118.64 267.216 1163.39 151.689 1203.88" stroke="#CCCCCC" stroke-opacity="0.8"/>
<path d="M266.695 1C294.556 7.1174 409.901 41.3474 569.82 93.6083C729.74 145.869 873.938 210.765 966.026 322.736C1019.63 396.331 947.85 469.481 804.087 516.764C697.867 538.827 571.92 581.076 476.362 606.569C385.173 630.896 290.246 691.925 356.687 793.194C412.051 854.742 485.864 899.167 386.161 1044.13C335.119 1118.34 255.602 1163.1 144.155 1203.59" stroke="#CCCCCC" stroke-opacity="0.8"/>
<path d="M255.475 1C283.457 7.30859 395.405 41.987 549.698 94.596C703.99 147.205 843.506 212.633 932.8 322.618C985.53 396.05 916.212 468.324 772.394 516.476C669.696 538.288 542.535 581.625 450.475 607.118C362.624 631.445 271.892 694.561 341.373 792.903C398.984 853.109 465.821 898.875 369.767 1043.84C320.594 1118.05 243.988 1162.81 136.621 1203.29" stroke="#CCCCCC" stroke-opacity="0.8"/>
<path d="M244.253 1C272.356 7.49978 380.907 42.6266 529.574 95.5837C678.24 148.541 813.074 214.501 899.574 322.5C951.431 395.769 884.574 467.167 740.7 516.187C641.524 537.75 513.149 582.174 424.586 607.667C340.074 631.994 253.536 697.196 326.057 792.612C385.915 851.477 445.777 898.583 353.373 1043.54C306.068 1117.75 232.373 1162.51 129.086 1203" stroke="#CCCCCC" stroke-opacity="0.8"/>
<path d="M233.033 1C261.256 7.69097 366.411 43.2662 509.451 96.5715C652.491 149.877 782.642 216.368 866.348 322.383C917.332 395.487 852.936 466.01 709.008 515.898C613.353 537.211 483.764 582.724 398.699 608.216C317.525 632.543 235.181 699.832 310.743 792.321C372.848 849.844 425.733 898.292 336.98 1043.25C291.543 1117.46 220.759 1162.22 121.552 1202.71" stroke="#CCCCCC" stroke-opacity="0.8"/>
<path d="M221.812 1C250.156 7.88216 351.914 43.9058 489.328 97.5592C626.742 151.213 752.21 218.236 833.122 322.265C883.234 395.206 821.299 464.853 677.315 515.61C585.182 536.673 454.378 583.273 372.812 608.765C294.976 633.092 216.827 702.467 295.429 792.03C359.78 848.211 405.69 898 320.586 1042.96C277.018 1117.17 209.145 1161.92 114.018 1202.41" stroke="#CCCCCC" stroke-opacity="0.8"/>
<path d="M210.591 1C239.056 8.07335 337.417 44.5454 469.204 98.5469C600.992 152.548 721.778 220.103 799.896 322.147C849.135 394.925 789.66 463.696 645.622 515.321C557.01 536.134 424.992 583.822 346.924 609.314C272.426 633.64 198.471 705.103 280.113 791.739C346.712 846.578 385.646 897.708 304.192 1042.67C262.493 1116.87 197.53 1161.63 106.482 1202.12" stroke="#CCCCCC" stroke-opacity="0.8"/>
<path d="M199.37 1C227.956 8.26454 322.92 45.1851 449.082 99.5346C575.243 153.884 691.346 221.971 766.67 322.03C815.037 394.644 758.023 462.54 613.929 515.033C528.839 535.595 395.607 584.371 321.037 609.863C249.878 634.189 180.116 707.738 264.799 791.448C333.644 844.946 365.603 897.417 287.799 1042.37C247.968 1116.58 185.916 1161.34 98.9482 1201.82" stroke="#CCCCCC" stroke-opacity="0.8"/>
<path d="M188.15 1C216.856 8.45573 308.424 45.8247 428.959 100.522C549.494 155.22 660.915 223.839 733.444 321.912C780.938 394.363 726.385 461.383 582.237 514.744C500.668 535.057 366.222 584.92 295.15 610.412C227.329 634.738 161.761 710.374 249.484 791.158C320.577 843.313 345.559 897.125 271.405 1042.08C233.443 1116.29 174.302 1161.04 91.4141 1201.53" stroke="#CCCCCC" stroke-opacity="0.8"/>
<path d="M176.929 1C205.755 8.64692 293.927 46.4643 408.835 101.51C523.744 156.556 630.482 225.706 700.217 321.794C746.839 394.081 694.747 460.226 550.543 514.455C472.496 534.518 336.835 585.47 269.262 610.961C204.779 635.287 143.406 713.009 234.169 790.867C307.508 841.68 325.515 896.833 255.011 1041.79C218.917 1115.99 162.688 1160.75 83.8789 1201.24" stroke="#CCCCCC" stroke-opacity="0.8"/>
<path d="M165.708 1C194.656 8.83811 279.43 47.1039 388.712 102.498C497.995 157.892 600.051 227.574 666.992 321.677C712.741 393.8 663.109 459.069 518.85 514.167C444.325 533.98 307.45 586.019 243.375 611.51C182.23 635.836 125.051 715.645 218.854 790.576C294.441 840.047 305.472 896.542 238.617 1041.49C204.392 1115.7 151.074 1160.46 76.3447 1200.94" stroke="#CCCCCC" stroke-opacity="0.8"/>
<path d="M154.488 1C183.556 9.0293 264.934 47.7435 368.59 103.486C472.246 159.228 569.619 229.441 633.766 321.559C678.643 393.519 631.472 457.912 487.158 513.878C416.154 533.441 278.065 586.568 217.488 612.059C159.681 636.384 106.696 718.28 203.54 790.285C281.373 838.414 285.429 896.25 222.224 1041.2C189.867 1115.41 139.46 1160.16 68.8105 1200.65" stroke="#CCCCCC" stroke-opacity="0.8"/>
<path d="M143.267 1C172.455 9.22049 250.437 48.3831 348.466 104.473C446.496 160.563 539.187 231.309 600.54 321.441C644.544 393.238 599.834 456.755 455.465 513.589C387.982 532.902 248.679 587.117 191.6 612.608C137.131 636.933 88.341 720.916 188.225 789.994C268.305 836.782 265.385 895.958 205.83 1040.91C175.342 1115.11 127.845 1159.87 61.2759 1200.35" stroke="#CCCCCC" stroke-opacity="0.8"/>
<path d="M132.046 1C161.355 9.41167 235.94 49.0227 328.343 105.461C420.747 161.899 508.755 233.177 567.314 321.324C610.445 392.957 568.196 455.598 423.772 513.301C359.811 532.364 219.293 587.666 165.713 613.157C114.582 637.482 69.9858 723.551 172.91 789.703C255.237 835.149 245.341 895.666 189.436 1040.62C160.816 1114.82 116.231 1159.57 53.7412 1200.06" stroke="#CCCCCC" stroke-opacity="0.8"/>
<path d="M120.825 1C150.255 9.60286 221.443 49.6623 308.22 106.449C394.997 163.235 478.323 235.044 534.088 321.206C576.347 392.676 536.559 454.441 392.079 513.012C331.64 531.825 189.908 588.215 139.825 613.706C92.0332 638.031 51.6311 726.187 157.596 789.412C242.17 833.516 225.298 895.375 173.043 1040.32C146.292 1114.53 104.617 1159.28 46.207 1199.77" stroke="#CCCCCC" stroke-opacity="0.8"/>
<path d="M109.604 1C139.155 9.79405 206.946 50.3019 288.097 107.436C369.248 164.571 447.891 236.912 500.862 321.088C542.248 392.394 504.921 453.284 360.386 512.723C303.468 531.287 160.522 588.765 113.938 614.255C69.4838 638.58 33.2758 728.822 142.281 789.122C229.102 831.883 205.254 895.083 156.649 1040.03C131.766 1114.23 93.0022 1158.99 38.6724 1199.47" stroke="#CCCCCC" stroke-opacity="0.8"/>
<path d="M98.3836 1C128.055 9.98524 192.449 50.9416 267.974 108.424C343.498 165.907 417.459 238.78 467.635 320.971C508.15 392.113 473.283 452.128 328.693 512.435C275.297 530.748 131.137 589.314 88.0502 614.804C46.9343 639.128 14.9206 731.458 126.966 788.831C216.034 830.251 185.21 894.791 140.255 1039.74C117.241 1113.94 81.3878 1158.69 31.1377 1199.18" stroke="#CCCCCC" stroke-opacity="0.8"/>
<path d="M87.1631 1C116.955 10.1764 177.953 51.5812 247.851 109.412C317.749 167.243 387.027 240.647 434.41 320.853C474.051 391.832 441.645 450.971 297 512.146C247.126 530.21 101.751 589.863 62.1631 615.353C24.3854 639.677 -3.43409 734.093 111.651 788.54C202.966 828.618 165.167 894.5 123.862 1039.44C102.716 1113.65 69.7738 1158.4 23.6035 1198.88" stroke="#CCCCCC" stroke-opacity="0.8"/>
<path d="M83.7631 1C113.676 10.3676 171.277 52.2208 235.549 110.4C299.82 168.578 364.416 242.515 409.004 320.735C447.773 391.551 417.828 449.814 273.128 511.857C226.775 529.671 80.1864 590.412 44.0964 615.902C9.65687 640.226 -13.9684 736.729 104.157 788.249C197.719 826.985 152.944 894.208 115.289 1039.15C96.0116 1113.35 65.9802 1158.1 23.8897 1198.59" stroke="#CCCCCC" stroke-opacity="0.8"/>
<path d="M86.3513 1C116.385 10.5588 170.589 52.8604 229.235 111.387C287.88 169.914 347.793 244.382 389.587 320.618C427.484 391.27 399.999 448.657 255.244 511.569C212.413 529.132 64.6098 590.961 32.018 616.451C0.916647 640.775 -18.5145 739.364 102.652 787.958C198.46 825.352 146.71 893.916 112.704 1038.86C95.2954 1113.06 68.175 1157.81 30.1642 1198.29" stroke="#CCCCCC" stroke-opacity="0.8"/>
</svg>
