<svg width="520" height="512" viewBox="0 0 520 512" fill="none" xmlns="http://www.w3.org/2000/svg">
<path d="M15.5 184.579C43.813 170.325 57.5942 139.118 88 148.079C113.742 155.665 106.003 191.121 130.5 202.079C182.613 225.39 152.609 83.8205 209.5 79.0792C260.429 74.8348 257.895 163.974 309 164.079C379.128 164.223 329.035 -27.2961 391.5 4.57918C414.799 16.4684 454.509 53.6558 478.5 64.0792" stroke="#131313" stroke-opacity="0.2"/>
<path d="M1 498.079C35.7567 494.955 55.9224 482.562 90 490.079C106.962 493.821 114.518 502.43 131.5 506.079C170.732 514.508 192.873 489.945 233 490.079C278.077 490.23 301.452 512.689 346.5 511.079C384.281 509.729 403.198 489.652 441 490.079C472.284 490.432 490.573 494.16 519.5 506.079" stroke="#131313" stroke-opacity="0.2"/>
<path d="M15.2627 189.675C43.6813 175.604 57.5672 144.706 88.0332 153.643C113.631 161.166 106.143 196.181 130.517 207.02C182.418 230.087 153.269 90.4352 209.886 85.7738C260.719 81.6015 258.609 169.648 309.615 169.725C379.212 169.844 330.251 -18.8646 392.312 12.4951C415.742 24.1952 455.101 60.8341 479.173 71.282" stroke="#131313" stroke-opacity="0.2"/>
<path d="M15.0244 194.772C43.5487 180.882 57.5392 150.293 88.0654 159.206C113.519 166.666 106.282 201.242 130.533 211.96C182.223 234.783 153.928 97.0499 210.27 92.4684C261.007 88.3681 259.323 175.321 310.229 175.37C379.296 175.465 331.467 -10.4331 393.123 20.411C416.684 31.922 455.692 68.0124 479.844 78.4848" stroke="#131313" stroke-opacity="0.2"/>
<path d="M14.7871 199.868C43.417 186.161 57.5122 155.88 88.0986 164.77C113.409 172.167 106.422 206.302 130.549 216.901C182.029 239.48 154.589 103.665 210.656 99.163C261.297 95.1348 260.037 180.995 310.844 181.015C379.381 181.086 332.683 -2.00167 393.935 28.327C417.626 39.6489 456.283 75.1907 480.517 85.6876" stroke="#131313" stroke-opacity="0.2"/>
<path d="M14.5488 204.964C43.2844 191.44 57.4842 161.467 88.1308 170.333C113.297 177.667 106.561 211.363 130.565 221.841C181.833 244.176 155.248 110.279 211.041 105.858C261.586 101.902 260.751 186.669 311.459 186.661C379.465 186.707 333.898 6.42984 394.746 36.2429C418.568 47.3757 456.874 82.369 481.188 92.8904" stroke="#131313" stroke-opacity="0.2"/>
<path d="M14.3115 210.061C43.1527 196.719 57.4572 167.054 88.164 175.897C113.186 183.168 106.701 216.423 130.582 226.782C181.639 248.873 155.909 116.894 211.426 112.552C261.875 108.668 261.465 192.342 312.074 192.306C379.55 192.328 335.114 14.8614 395.557 44.1589C419.511 55.1026 457.465 89.5474 481.861 100.093" stroke="#131313" stroke-opacity="0.2"/>
<path d="M14.0742 215.157C43.021 201.997 57.4302 172.641 88.1972 181.46C113.075 188.668 106.841 221.483 130.599 231.722C181.444 253.57 156.569 123.509 211.812 119.247C262.165 115.435 262.179 198.016 312.689 197.952C379.635 197.949 336.33 23.2929 396.369 52.0749C420.454 62.8295 458.057 96.7257 482.533 107.296" stroke="#131313" stroke-opacity="0.2"/>
<path d="M13.8359 220.253C42.8884 207.276 57.4022 178.229 88.2294 187.024C112.964 194.169 106.98 226.544 130.615 236.663C181.249 258.266 157.229 130.124 212.197 125.942C262.454 122.202 262.893 203.689 313.303 203.597C379.719 203.57 337.545 31.7245 397.18 59.9909C421.396 70.5564 458.648 103.904 483.205 114.499" stroke="#131313" stroke-opacity="0.2"/>
<path d="M13.5986 225.35C42.7567 212.555 57.3752 183.816 88.2626 192.587C112.853 199.669 107.12 231.604 130.631 241.604C181.055 262.963 157.889 136.738 212.582 132.636C262.744 128.968 263.607 209.363 313.918 209.243C379.804 209.191 338.762 40.156 397.992 67.9069C422.338 78.2832 459.239 111.082 483.877 121.702" stroke="#131313" stroke-opacity="0.2"/>
<path d="M13.3604 230.446C42.6241 217.834 57.3472 189.403 88.2948 198.151C112.741 205.17 107.259 236.665 130.647 246.544C180.859 267.66 158.549 143.353 212.967 139.331C263.032 135.735 264.321 215.037 314.532 214.889C379.888 214.812 339.977 48.5876 398.803 75.823C423.28 86.0102 459.83 118.261 484.549 128.905" stroke="#131313" stroke-opacity="0.2"/>
<path d="M13.123 235.542C42.4924 223.113 57.3202 194.99 88.328 203.714C112.63 210.67 107.399 241.725 130.664 251.485C180.665 272.356 159.209 149.968 213.353 146.026C263.322 142.502 265.035 220.71 315.148 220.534C379.972 220.433 341.193 57.0192 399.615 83.739C424.223 93.7371 460.422 125.439 485.221 136.108" stroke="#131313" stroke-opacity="0.2"/>
<path d="M12.8848 240.639C42.3597 228.392 57.2923 200.578 88.3602 209.278C112.519 216.171 107.538 246.786 130.68 256.426C180.47 277.053 159.869 156.583 213.737 152.721C263.611 149.269 265.749 226.384 315.762 226.18C380.056 226.054 342.408 65.4509 400.426 91.6551C425.165 101.464 461.012 132.618 485.893 143.311" stroke="#131313" stroke-opacity="0.2"/>
<path d="M12.6475 245.735C42.2281 233.671 57.2653 206.165 88.3934 214.842C112.408 221.672 107.678 251.846 130.697 261.366C180.275 281.75 160.529 163.198 214.123 159.416C263.9 156.036 266.463 232.058 316.377 231.825C380.141 231.675 343.624 73.8825 401.238 99.5712C426.107 109.191 461.604 139.796 486.565 150.514" stroke="#131313" stroke-opacity="0.2"/>
<path d="M12.4102 250.832C42.0964 238.949 57.2382 211.752 88.4266 220.405C112.297 227.172 107.818 256.907 130.713 266.307C180.081 286.446 161.19 169.813 214.509 166.11C264.19 162.803 267.178 237.732 316.992 237.471C380.226 237.296 344.841 82.3142 402.049 107.487C427.05 116.918 462.195 146.975 487.238 157.717" stroke="#131313" stroke-opacity="0.2"/>
<path d="M12.1719 255.928C41.9638 244.228 57.2103 217.34 88.4588 225.969C112.185 232.673 107.957 261.967 130.729 271.248C179.886 291.143 161.849 176.427 214.893 172.805C264.479 169.57 267.891 243.405 317.606 243.117C380.31 242.918 346.056 90.7459 402.86 115.404C427.992 124.645 462.786 154.153 487.91 164.92" stroke="#131313" stroke-opacity="0.2"/>
<path d="M11.9346 261.025C41.8321 249.507 57.1833 222.927 88.492 231.533C112.075 238.174 108.097 267.028 130.746 276.189C179.691 295.84 162.51 183.042 215.279 179.5C264.769 176.337 268.606 249.079 318.221 248.762C380.395 248.539 347.272 99.1777 403.672 123.32C428.935 132.372 463.378 161.332 488.582 172.123" stroke="#131313" stroke-opacity="0.2"/>
<path d="M11.6963 266.121C41.6994 254.786 57.1553 228.515 88.5242 237.097C111.963 243.674 108.236 272.089 130.762 281.129C179.496 300.537 163.169 189.657 215.663 186.195C265.057 183.103 269.319 254.753 318.836 254.408C380.479 254.16 348.487 107.609 404.483 131.236C429.877 140.099 463.968 168.51 489.254 179.326" stroke="#131313" stroke-opacity="0.2"/>
<path d="M11.459 271.218C41.5678 260.065 57.1283 234.102 88.5573 242.66C111.852 249.175 108.376 277.149 130.779 286.07C179.302 305.234 163.83 196.272 216.049 192.89C265.347 189.87 270.034 260.427 319.451 260.054C380.564 259.781 349.703 116.041 405.295 139.152C430.819 147.826 464.56 175.689 489.926 186.529" stroke="#131313" stroke-opacity="0.2"/>
<path d="M11.2217 276.314C41.4361 265.344 57.1013 239.689 88.5905 248.224C111.741 254.676 108.516 282.21 130.795 291.011C179.107 309.931 164.49 202.887 216.435 199.585C265.637 196.637 270.748 266.101 320.066 265.7C380.648 265.403 350.92 124.473 406.107 147.068C431.762 155.554 465.151 182.868 490.599 193.732" stroke="#131313" stroke-opacity="0.2"/>
<path d="M10.9834 281.411C41.3034 270.624 57.0733 245.277 88.6227 253.788C111.63 260.177 108.655 287.271 130.811 295.952C178.912 314.628 165.15 209.502 216.819 206.28C265.925 203.405 271.462 271.775 320.68 271.345C380.732 271.024 352.135 132.905 406.918 154.985C432.704 163.281 465.742 190.046 491.27 200.936" stroke="#131313" stroke-opacity="0.2"/>
<path d="M10.7461 286.508C41.1718 275.903 57.0463 250.865 88.6559 259.352C111.519 265.678 108.795 292.331 130.828 300.893C178.718 319.325 165.81 216.118 217.205 212.975C266.215 210.172 272.176 277.449 321.295 276.991C380.817 276.645 353.351 141.337 407.73 162.901C433.647 171.008 466.334 197.225 491.943 208.139" stroke="#131313" stroke-opacity="0.2"/>
<path d="M10.5078 291.604C41.0391 281.182 57.0183 256.452 88.6881 264.916C111.407 271.178 108.934 297.392 130.844 305.834C178.522 324.021 166.47 222.733 217.59 219.67C266.504 216.939 272.889 283.122 321.909 282.637C380.901 282.267 354.566 149.769 408.541 170.817C434.589 178.735 466.924 204.404 492.614 215.342" stroke="#131313" stroke-opacity="0.2"/>
<path d="M10.2705 296.701C40.9075 286.461 56.9913 262.04 88.7213 270.48C111.297 276.679 109.074 302.453 130.861 310.775C178.328 328.719 167.13 229.348 217.975 226.365C266.794 223.706 273.604 288.797 322.525 288.283C380.986 287.888 355.782 158.201 409.352 178.734C435.531 186.463 467.516 211.583 493.287 222.545" stroke="#131313" stroke-opacity="0.2"/>
<path d="M10.0332 301.798C40.7758 291.74 56.9643 267.627 88.7545 276.044C111.186 282.18 109.214 307.514 130.877 315.716C178.134 333.416 167.79 235.963 218.361 233.06C267.083 230.473 274.318 294.471 323.14 293.929C381.071 293.51 356.998 166.633 410.164 186.65C436.474 194.19 468.108 218.761 493.959 229.749" stroke="#131313" stroke-opacity="0.2"/>
<path d="M9.79492 306.895C40.6431 297.02 56.9363 273.215 88.7867 281.608C111.074 287.681 109.353 312.575 130.893 320.657C177.938 338.113 168.45 242.578 218.746 239.755C267.372 237.24 275.032 300.145 323.754 299.575C381.155 299.131 358.214 175.065 410.975 194.567C437.416 201.917 468.698 225.94 494.631 236.952" stroke="#131313" stroke-opacity="0.2"/>
<path d="M9.55762 311.992C40.5115 302.299 56.9093 278.803 88.8199 287.172C110.963 293.182 109.493 317.636 130.91 325.598C177.744 342.81 169.11 249.194 219.131 246.451C267.662 244.008 275.746 305.819 324.369 305.221C381.24 304.753 359.43 183.497 411.787 202.483C438.359 209.645 469.29 233.119 495.304 244.155" stroke="#131313" stroke-opacity="0.2"/>
<path d="M9.31934 317.089C40.3788 307.578 56.8813 284.391 88.8521 292.736C110.852 298.684 109.632 322.697 130.926 330.539C177.549 347.507 169.77 255.809 219.516 253.146C267.95 250.775 276.46 311.493 324.983 310.867C381.324 310.374 360.645 191.929 412.598 210.4C439.301 217.372 469.88 240.298 495.975 251.359" stroke="#131313" stroke-opacity="0.2"/>
<path d="M9.08203 322.186C40.2472 312.858 56.8543 289.979 88.8853 298.3C110.741 304.185 109.772 327.758 130.943 335.481C177.354 352.204 170.43 262.424 219.902 259.841C268.24 257.542 277.174 317.167 325.598 316.513C381.408 315.996 361.861 200.361 413.41 218.317C440.243 225.1 470.472 247.477 496.648 258.563" stroke="#131313" stroke-opacity="0.2"/>
<path d="M8.84473 327.283C40.1155 318.137 56.8273 295.566 88.9185 303.865C110.63 309.686 109.912 332.819 130.959 340.422C177.16 356.902 171.091 269.04 220.287 266.537C268.53 264.31 277.889 322.842 326.214 322.16C381.493 321.618 363.077 208.793 414.222 226.233C441.186 232.827 471.064 254.656 497.32 265.766" stroke="#131313" stroke-opacity="0.2"/>
<path d="M8.60645 332.38C39.9828 323.417 56.7993 301.154 88.9507 309.429C110.518 315.187 110.051 337.88 130.975 345.363C176.965 361.599 171.75 275.655 220.672 273.232C268.819 271.077 278.602 328.516 326.828 327.806C381.577 327.24 364.293 217.226 415.033 234.15C442.128 240.555 471.654 261.835 497.992 272.97" stroke="#131313" stroke-opacity="0.2"/>
<path d="M8.36914 337.477C39.8512 328.696 56.7723 306.743 88.9839 314.993C110.408 320.689 110.191 342.942 130.992 350.305C176.77 366.297 172.411 282.271 221.058 279.928C269.108 277.845 279.317 334.191 327.443 333.452C381.662 332.861 365.509 225.658 415.845 242.067C443.071 248.283 472.246 269.015 498.664 280.174" stroke="#131313" stroke-opacity="0.2"/>
<path d="M8.13086 342.574C39.7185 333.976 56.7443 312.331 89.0161 320.558C110.296 326.19 110.33 348.003 131.008 355.246C176.575 370.994 173.07 288.887 221.442 286.623C269.397 284.613 280.03 339.865 328.057 339.099C381.746 338.483 366.724 234.091 416.655 249.984C444.013 256.011 472.836 276.194 499.336 287.377" stroke="#131313" stroke-opacity="0.2"/>
<path d="M7.89355 347.672C39.5868 339.256 56.7173 317.919 89.0493 326.122C110.185 331.692 110.47 353.064 131.025 360.188C176.38 375.692 173.731 295.503 221.828 293.319C269.687 291.381 280.745 345.54 328.672 344.745C381.831 344.105 367.94 242.523 417.467 257.901C444.955 263.739 473.428 283.373 500.008 294.581" stroke="#131313" stroke-opacity="0.2"/>
<path d="M7.65527 352.769C39.4542 344.536 56.6893 323.507 89.0815 331.687C110.073 337.193 110.609 358.126 131.041 365.13C176.185 380.39 174.39 302.118 222.213 300.015C269.975 298.148 281.458 351.215 329.286 350.392C381.915 349.728 369.155 250.956 418.278 265.818C445.897 271.467 474.019 290.553 500.68 301.785" stroke="#131313" stroke-opacity="0.2"/>
<path d="M7.41797 357.867C39.3225 349.816 56.6623 329.096 89.1147 337.252C109.963 342.695 110.749 363.188 131.057 370.071C175.991 385.088 175.051 308.734 222.598 306.711C270.265 304.916 282.172 356.889 329.902 356.039C382 355.35 370.372 259.389 419.09 273.735C446.84 279.195 474.61 297.732 501.352 308.989" stroke="#131313" stroke-opacity="0.2"/>
<path d="M7.18066 362.964C39.1909 355.096 56.6353 334.684 89.1479 342.817C109.852 348.197 110.889 368.249 131.074 375.013C175.796 389.786 175.711 315.35 222.984 313.407C270.555 311.684 282.887 362.564 330.517 361.685C382.085 360.972 371.588 267.822 419.902 281.653C447.783 286.923 475.202 304.912 502.025 316.194" stroke="#131313" stroke-opacity="0.2"/>
<path d="M6.94238 368.062C39.0582 360.376 56.6073 340.273 89.1801 348.381C109.74 353.699 111.028 373.311 131.09 379.955C175.601 394.483 176.371 321.967 223.369 320.103C270.844 318.452 283.6 368.239 331.131 367.332C382.169 366.595 372.803 276.254 420.713 289.57C448.725 294.651 475.793 312.092 502.696 323.398" stroke="#131313" stroke-opacity="0.2"/>
<path d="M6.70508 373.16C38.9265 365.656 56.5803 345.862 89.2133 353.947C109.629 359.201 111.168 378.373 131.107 384.897C175.407 399.182 177.031 328.583 223.754 326.799C271.133 325.221 284.315 373.914 331.746 372.979C382.253 372.217 374.019 284.688 421.525 297.488C449.667 302.38 476.384 319.272 503.369 330.602" stroke="#131313" stroke-opacity="0.2"/>
<path d="M6.4668 378.258C38.7939 370.937 56.5524 351.451 89.2455 359.512C109.518 364.703 111.307 383.435 131.123 389.84C175.211 403.88 177.691 335.199 224.139 333.496C271.422 331.989 285.028 379.59 332.36 378.627C382.337 377.84 375.234 293.121 422.336 305.405C450.609 310.108 476.975 326.452 504.041 337.807" stroke="#131313" stroke-opacity="0.2"/>
<path d="M6.22949 383.356C38.6622 376.218 56.5253 357.04 89.2787 365.077C109.407 370.205 111.447 388.497 131.139 394.782C175.017 408.579 178.351 341.816 224.525 340.192C271.712 338.758 285.743 385.265 332.975 384.274C382.422 383.463 376.45 301.554 423.148 313.323C451.552 317.837 477.566 333.632 504.713 345.012" stroke="#131313" stroke-opacity="0.2"/>
<path d="M5.99219 388.454C38.5305 381.498 56.4983 362.629 89.3119 370.643C109.296 375.708 111.587 393.56 131.156 399.725C174.823 413.277 179.012 348.433 224.91 346.889C272.001 345.527 286.457 390.941 333.591 389.922C382.507 389.086 377.667 309.988 423.959 321.241C452.495 325.566 478.158 340.812 505.386 352.217" stroke="#131313" stroke-opacity="0.2"/>
<path d="M5.75391 393.553C38.3979 386.78 56.4704 368.218 89.3441 376.209C109.185 381.211 111.726 398.623 131.172 404.668C174.627 417.976 179.671 355.05 225.295 353.586C272.29 352.296 287.171 396.617 334.205 395.569C382.591 394.709 378.882 318.422 424.77 329.16C453.437 333.295 478.749 347.993 506.057 359.422" stroke="#131313" stroke-opacity="0.2"/>
<path d="M5.5166 398.652C38.2662 392.061 56.4434 373.808 89.3773 381.775C109.074 386.714 111.866 403.685 131.189 409.611C174.433 422.675 180.332 361.667 225.681 360.283C272.58 359.065 287.885 402.293 334.82 401.217C382.676 400.333 380.098 326.856 425.582 337.078C454.379 341.024 479.34 355.174 506.73 366.627" stroke="#131313" stroke-opacity="0.2"/>
<path d="M5.27832 403.751C38.1336 397.342 56.4154 379.398 89.4095 387.341C108.962 392.217 112.005 408.749 131.205 414.554C174.238 427.374 180.991 368.285 226.065 366.98C272.869 365.834 288.599 407.969 335.434 406.866C382.76 405.956 381.313 335.29 426.393 344.997C455.321 348.754 479.931 362.355 507.401 373.833" stroke="#131313" stroke-opacity="0.2"/>
<path d="M5.04102 408.85C38.0019 402.624 56.3884 384.988 89.4427 392.907C108.851 397.72 112.145 413.812 131.221 419.498C174.043 432.074 181.651 374.902 226.451 373.678C273.158 372.604 289.313 413.646 336.049 412.514C382.845 411.58 382.529 343.724 427.205 352.916C456.264 356.484 480.522 369.536 508.074 381.039" stroke="#131313" stroke-opacity="0.2"/>
<path d="M4.80371 413.95C37.8702 407.906 56.3614 390.578 89.4758 398.474C108.741 403.224 112.285 418.876 131.238 424.441C173.849 436.774 182.312 381.52 226.837 380.376C273.448 379.374 290.028 419.323 336.664 418.163C382.929 417.205 383.746 352.159 428.017 360.835C457.207 364.214 481.114 376.718 508.746 388.245" stroke="#131313" stroke-opacity="0.2"/>
<path d="M4.56543 419.05C37.7376 413.188 56.3334 396.169 89.508 404.041C108.629 408.728 112.424 423.94 131.254 429.386C173.654 441.474 182.971 388.139 227.221 387.074C273.737 386.144 290.741 425 337.279 423.812C383.013 422.829 384.961 360.594 428.828 368.754C458.149 371.944 481.705 383.9 509.418 395.451" stroke="#131313" stroke-opacity="0.2"/>
<path d="M4.32812 424.15C37.6059 418.471 56.3064 401.761 89.5412 409.609C108.518 414.233 112.564 429.004 131.271 434.33C173.459 446.175 183.632 394.757 227.607 393.773C274.027 392.915 291.455 430.678 337.894 429.461C383.098 428.454 386.177 369.03 429.64 376.674C459.091 379.675 482.296 391.082 510.09 402.658" stroke="#131313" stroke-opacity="0.2"/>
<path d="M4.08984 429.251C37.4733 423.755 56.2784 407.352 89.5734 415.177C108.406 419.738 112.703 434.069 131.287 439.275C173.264 450.876 184.291 401.377 227.991 400.472C274.315 399.686 292.169 436.356 338.508 435.111C383.182 434.08 387.392 377.466 430.451 384.595C460.033 387.407 482.887 398.265 510.762 409.865" stroke="#131313" stroke-opacity="0.2"/>
<path d="M3.85254 434.352C37.3416 429.038 56.2514 412.945 89.6066 420.746C108.296 425.243 112.843 439.134 131.303 444.221C173.07 455.578 184.952 407.996 228.377 407.172C274.605 406.458 292.883 442.034 339.123 440.762C383.267 439.706 388.608 385.903 431.262 392.516C460.976 395.139 483.479 405.449 511.435 417.073" stroke="#131313" stroke-opacity="0.2"/>
<path d="M3.61523 439.454C37.2099 434.323 56.2244 418.537 89.6398 426.315C108.185 430.75 112.983 444.201 131.32 449.167C172.875 460.28 185.612 414.617 228.763 413.872C274.895 413.231 293.598 447.714 339.738 446.413C383.352 445.333 389.825 394.34 432.074 400.438C461.919 402.871 484.07 412.633 512.107 424.282" stroke="#131313" stroke-opacity="0.2"/>
<path d="M3.37695 444.557C37.0773 439.608 56.1964 424.131 89.672 431.885C108.073 436.257 113.122 449.267 131.336 454.114C172.68 464.983 186.272 421.238 229.147 420.573C275.183 420.004 294.311 453.394 340.352 452.065C383.436 450.96 391.04 402.778 432.885 408.36C462.861 410.605 484.661 419.817 512.779 431.491" stroke="#131313" stroke-opacity="0.2"/>
<path d="M3.13965 449.661C36.9456 444.894 56.1694 429.726 89.7052 437.456C107.962 441.764 113.262 454.335 131.353 459.062C172.486 469.687 186.932 427.86 229.533 427.275C275.473 426.778 295.026 459.075 340.968 457.718C383.521 456.588 392.256 411.217 433.697 416.284C463.803 418.339 485.252 427.003 513.451 438.702" stroke="#131313" stroke-opacity="0.2"/>
<path d="M2.90137 454.765C36.813 450.181 56.1414 435.321 89.7374 443.028C107.851 447.273 113.401 459.404 131.369 464.011C172.29 474.392 187.592 434.483 229.918 433.978C275.762 433.553 295.739 464.757 341.582 463.372C383.605 462.218 393.471 419.657 434.508 424.208C464.745 426.074 485.843 434.19 514.123 445.913" stroke="#131313" stroke-opacity="0.2"/>
<path d="M2.66406 459.871C36.6813 455.47 56.1144 440.918 89.7706 448.601C107.74 452.784 113.541 464.474 131.385 468.962C172.096 479.098 188.252 441.108 230.303 440.683C276.052 440.33 296.454 470.44 342.197 469.027C383.689 467.849 394.687 428.098 435.32 432.134C465.688 433.811 486.435 441.378 514.795 453.126" stroke="#131313" stroke-opacity="0.2"/>
<path d="M2.42578 464.979C36.5486 460.76 56.0864 446.517 89.8028 454.176C107.628 458.296 113.68 469.546 131.401 473.914C171.9 483.806 188.912 447.734 230.688 447.389C276.34 447.108 297.167 476.125 342.811 474.684C383.773 473.481 395.903 436.541 436.131 440.061C466.63 441.549 487.025 448.568 515.467 460.34" stroke="#131313" stroke-opacity="0.2"/>
<path d="M2.18848 470.089C36.417 466.053 56.0594 452.118 89.836 459.753C107.517 463.81 113.82 474.62 131.418 478.868C171.706 488.517 189.572 454.362 231.074 454.097C276.63 453.888 297.882 481.812 343.426 480.343C383.858 479.116 397.119 444.986 436.943 447.991C467.572 449.29 487.617 455.76 516.139 467.556" stroke="#131313" stroke-opacity="0.2"/>
<path d="M1.95117 475.202C36.2853 471.348 56.0324 457.721 89.8692 465.333C107.407 469.326 113.96 479.697 131.435 483.824C171.512 493.229 190.233 460.993 231.459 460.808C276.92 460.671 298.596 487.502 344.041 486.005C383.943 484.753 398.335 453.434 437.754 455.923C468.515 457.033 488.208 462.954 516.812 474.775" stroke="#131313" stroke-opacity="0.2"/>
<path d="M1.71289 480.318C36.1527 476.646 56.0044 463.328 89.9014 470.916C107.295 474.847 114.099 484.777 131.451 488.785C171.316 497.946 190.892 467.628 231.844 467.523C277.208 467.457 299.31 493.195 344.656 491.67C384.027 490.394 399.55 461.885 438.565 463.859C469.457 464.779 488.799 470.152 517.483 481.998" stroke="#131313" stroke-opacity="0.2"/>
<path d="M1.47559 485.438C36.021 481.949 55.9774 468.94 89.9346 476.504C107.184 480.371 114.239 489.862 131.467 493.75C171.122 502.667 191.553 474.267 232.23 474.242C277.498 474.249 300.024 498.893 345.271 497.34C384.112 496.039 400.766 470.341 439.377 471.799C470.4 472.531 489.391 477.355 518.156 489.225" stroke="#131313" stroke-opacity="0.2"/>
<path d="M1.2373 490.566C35.8883 487.259 55.9494 474.558 89.9668 482.099C107.073 485.903 114.378 494.953 131.483 498.722C170.927 507.395 192.212 480.913 232.614 480.968C277.787 481.047 300.737 504.598 345.885 503.017C384.196 501.691 401.981 478.804 440.188 479.746C471.342 480.289 489.981 484.565 518.827 496.459" stroke="#131313" stroke-opacity="0.2"/>
</svg>
