<svg width="1874" height="559" viewBox="0 0 1874 559" fill="none" xmlns="http://www.w3.org/2000/svg">
<path d="M1756.28 531.669C1511.18 508.138 1240.32 603.725 1391.9 456.738C1436.9 412.853 1382.86 300.175 1215.12 365.082C990.572 452.11 675.98 445.588 457.632 418.903C315.493 401.321 204.911 338.719 36.4565 243.295C-130.459 148.737 335.632 220.107 527.357 219.757C661.603 219.524 945.33 219.292 834.45 147.484C790.501 118.913 762.4 106.404 724.877 69.7676C564.963 -85.7113 1151.51 80.0777 1307.14 34.5888C1383.14 12.1482 1485.49 25.8656 1524.46 13.5143C1660.4 -28.9235 1756.07 50.2066 1756.28 49.8848" stroke="#CCCCCC"/>
<path d="M1758.38 532.336C1518.18 509.276 1252.66 602.784 1401.11 458.476C1445.12 415.208 1392.04 304.429 1227.56 367.665C1007.41 452.579 699.049 445.794 485.082 419.306C345.804 401.643 237.64 339.939 72.7307 246.088C-90.6705 153.086 366.244 222.713 554.032 222.013C685.524 221.547 963.479 221.083 854.718 150.466C811.55 122.222 783.912 109.709 747.071 73.5337C590.287 -79.1075 1165.07 83.0756 1317.6 38.1781C1392.11 15.7967 1492.46 28.9289 1530.75 16.5292C1664.06 -25.3555 1757.96 51.9118 1758.38 51.2682" stroke="#CCCCCC"/>
<path d="M1760.47 533.004C1525.18 510.415 1265 601.843 1410.32 460.214C1453.34 417.563 1401.22 308.684 1240.01 370.248C1024.25 453.049 722.118 446.002 512.532 419.709C376.115 401.966 270.369 341.159 109.006 248.881C-50.8811 157.436 396.858 225.319 580.708 224.27C709.446 223.57 981.628 222.875 874.987 153.448C832.599 125.531 805.426 113.015 769.266 77.3002C615.611 -72.5032 1178.62 86.0739 1328.06 41.7678C1401.07 19.4457 1499.42 31.9927 1537.03 19.5444C1667.73 -21.787 1759.85 53.6175 1760.47 52.652" stroke="#CCCCCC"/>
<path d="M1762.57 533.671C1532.18 511.552 1277.35 600.901 1419.54 461.951C1461.55 419.917 1410.4 312.937 1252.45 372.83C1041.09 453.516 745.186 446.207 539.982 420.111C406.425 402.286 303.098 342.378 145.28 251.673C-11.0921 161.784 427.471 227.923 607.383 226.524C733.367 225.592 999.776 224.665 895.255 156.429C853.648 128.838 826.938 116.319 791.46 81.0652C640.935 -65.9005 1192.17 89.0706 1338.52 45.356C1410.03 23.0931 1506.39 35.0549 1543.31 22.5581C1671.38 -18.2201 1761.74 55.3216 1762.57 54.0342" stroke="#CCCCCC"/>
<path d="M1764.67 534.337C1539.18 512.689 1289.69 599.959 1428.75 463.688C1469.77 422.271 1419.58 317.19 1264.89 375.412C1057.94 453.984 768.256 446.413 567.432 420.513C436.737 402.607 335.828 343.596 181.555 254.465C28.6975 166.132 458.085 230.528 634.059 228.779C757.289 227.614 1017.93 226.454 915.524 159.41C874.697 132.145 848.452 119.623 813.655 84.83C666.259 -59.298 1205.73 92.0672 1348.98 48.9441C1419 26.7404 1513.36 38.117 1549.59 25.5717C1675.05 -14.6533 1763.63 57.0256 1764.67 55.4164" stroke="#CCCCCC"/>
<path d="M1766.76 535.003C1546.18 513.826 1302.03 599.016 1437.97 465.424C1477.99 424.624 1428.76 321.442 1277.33 377.992C1074.78 454.451 791.325 446.618 594.882 420.914C467.048 402.927 368.557 344.814 217.83 257.256C68.4872 170.479 488.699 233.131 660.735 231.033C781.212 229.635 1036.08 228.243 935.792 162.391C895.747 135.452 869.965 122.926 835.85 88.5942C691.584 -52.696 1219.28 95.0632 1359.44 52.5315C1427.96 30.3871 1520.32 41.1785 1555.88 28.5847C1678.71 -11.0871 1765.52 58.7289 1766.76 56.7979" stroke="#CCCCCC"/>
<path d="M1768.86 535.668C1553.18 514.961 1314.37 598.073 1447.18 467.159C1486.21 426.976 1437.94 325.694 1289.78 380.573C1091.62 454.917 814.394 446.822 622.332 421.314C497.359 403.246 401.287 346.031 254.105 260.047C108.276 174.826 519.312 235.734 687.411 233.287C805.133 231.655 1054.22 230.032 956.061 165.37C916.796 138.758 891.478 126.229 858.044 92.3578C716.908 -46.0948 1232.83 98.0584 1369.9 56.1182C1436.92 34.0331 1527.29 44.2393 1562.16 31.5969C1682.37 -7.52163 1767.41 60.4316 1768.86 58.1787" stroke="#CCCCCC"/>
<path d="M1770.96 536.333C1560.17 516.096 1326.72 597.129 1456.4 468.894C1494.43 429.327 1447.11 329.945 1302.22 383.152C1108.46 455.383 837.463 447.026 649.783 421.714C527.671 403.565 434.017 347.248 290.38 262.837C148.066 179.171 549.926 238.337 714.087 235.539C829.056 233.674 1072.37 231.819 976.33 168.349C937.846 142.063 912.992 129.531 880.24 96.1205C742.232 -39.4942 1246.39 101.053 1380.36 59.7042C1445.89 37.6783 1534.25 47.2993 1568.44 34.6085C1686.03 -3.95687 1769.3 62.1335 1770.96 59.5588" stroke="#CCCCCC"/>
<path d="M1773.06 536.996C1567.17 517.23 1339.06 596.183 1465.61 470.627C1502.64 431.678 1456.29 334.195 1314.66 385.73C1125.3 455.847 860.532 447.228 677.233 422.112C557.982 403.882 466.746 348.463 326.655 265.625C187.856 183.516 580.54 240.938 740.763 237.791C852.978 235.692 1090.52 233.606 996.599 171.326C958.896 145.367 934.505 132.832 902.435 99.882C767.557 -32.895 1259.94 104.046 1390.82 63.2889C1454.85 41.3223 1541.22 50.3581 1574.73 37.6187C1689.69 -0.393402 1771.19 63.8342 1773.06 60.9376" stroke="#CCCCCC"/>
<path d="M1775.15 537.659C1574.17 518.364 1351.4 595.237 1474.83 472.36C1510.86 434.028 1465.47 338.444 1327.1 388.308C1142.14 456.311 883.602 447.43 704.684 422.511C588.294 404.199 499.476 349.678 362.931 268.413C227.646 187.86 611.154 243.538 767.439 240.042C876.9 237.71 1108.67 235.392 1016.87 174.304C979.946 148.671 956.019 136.132 924.63 103.643C792.881 -26.2961 1273.5 107.039 1401.28 66.8733C1463.81 44.9659 1548.19 53.4165 1581.01 40.6286C1693.35 3.1697 1773.09 65.5344 1775.15 62.316" stroke="#CCCCCC"/>
<path d="M1777.25 538.321C1581.17 519.496 1363.75 594.291 1484.04 474.093C1519.08 436.377 1474.65 342.693 1339.55 390.885C1158.99 456.774 906.671 447.631 732.135 422.908C618.605 404.515 532.206 350.892 399.206 271.2C267.436 192.203 641.768 246.138 794.115 242.292C900.822 239.727 1126.82 237.177 1037.14 177.28C1001 151.974 977.533 139.431 946.825 107.403C818.206 -19.6982 1287.05 110.031 1411.74 70.4568C1472.78 48.6086 1555.15 56.474 1587.29 43.6376C1697.01 6.73189 1774.98 67.2338 1777.25 63.6935" stroke="#CCCCCC"/>
<path d="M1779.35 538.981C1588.17 520.628 1376.09 593.343 1493.26 475.824C1527.3 438.725 1483.83 346.94 1351.99 393.461C1175.83 457.236 929.742 447.831 759.586 423.304C648.918 404.83 564.937 352.104 435.482 273.987C307.226 196.546 672.382 248.737 820.792 244.541C924.745 241.743 1144.97 238.961 1057.41 180.255C1022.05 155.275 999.047 142.73 969.021 111.163C843.531 -13.1012 1300.6 113.022 1422.2 74.0392C1481.74 52.2504 1562.12 59.5305 1593.58 46.6456C1700.67 10.2931 1776.87 68.9322 1779.35 65.0701" stroke="#CCCCCC"/>
<path d="M1781.45 539.641C1595.17 521.758 1388.43 592.394 1502.48 477.554C1535.52 441.072 1493.01 351.186 1364.43 396.036C1192.67 457.697 952.812 448.03 787.037 423.699C679.23 405.144 597.667 353.316 471.758 276.772C347.017 200.887 702.997 251.335 847.469 246.789C948.668 243.758 1163.12 240.744 1077.68 183.23C1043.1 158.576 1020.56 146.027 991.217 114.921C868.857 -6.50524 1314.16 116.012 1432.66 77.6206C1490.7 55.891 1569.08 62.586 1599.86 49.6525C1704.33 13.8533 1778.76 70.6296 1781.45 66.4456" stroke="#CCCCCC"/>
<path d="M1783.55 540.299C1602.17 522.887 1400.78 591.444 1511.69 479.282C1543.74 443.417 1502.2 355.431 1376.88 398.609C1209.51 458.157 975.882 448.227 814.488 424.093C709.542 405.456 630.398 354.527 508.033 279.556C386.807 205.226 733.611 253.931 874.145 249.035C972.591 245.772 1181.27 242.526 1097.95 186.202C1064.15 161.875 1042.08 149.323 1013.41 118.678C894.182 0.0890732 1327.71 119.001 1443.12 81.2004C1499.67 59.5301 1576.05 65.6398 1606.14 52.6578C1707.99 17.4118 1780.65 72.3253 1783.55 67.8195" stroke="#CCCCCC"/>
<path d="M1785.65 540.957C1609.18 524.015 1413.12 590.493 1520.91 481.011C1551.96 445.762 1511.38 359.676 1389.32 401.182C1226.36 458.616 998.952 448.424 841.94 424.486C739.855 405.768 663.129 355.736 544.31 282.339C426.598 209.566 764.226 256.526 900.822 251.281C996.515 247.785 1199.42 244.307 1118.22 189.175C1085.2 165.174 1063.59 152.618 1035.61 122.434C919.507 6.68312 1341.27 121.989 1453.59 84.7799C1508.63 63.1688 1583.02 68.6934 1612.43 55.6629C1711.66 20.9701 1782.54 74.0207 1785.65 69.1931" stroke="#CCCCCC"/>
<path d="M1787.74 541.613C1616.18 525.142 1425.47 589.54 1530.12 482.737C1560.18 448.105 1520.56 363.918 1401.76 403.753C1243.2 459.073 1022.02 448.619 869.392 424.877C770.167 406.078 695.86 356.944 580.586 285.12C466.389 213.903 794.841 259.12 927.499 253.525C1020.44 249.795 1217.57 246.086 1138.49 192.145C1106.25 168.47 1085.11 155.911 1057.81 126.188C944.833 13.2748 1354.82 124.974 1464.05 88.3571C1517.6 66.8053 1589.99 71.7446 1618.71 58.6656C1715.32 24.5261 1784.43 75.7139 1787.74 70.5644" stroke="#CCCCCC"/>
<path d="M1789.84 542.268C1623.18 526.267 1437.81 588.586 1539.34 484.461C1568.4 450.447 1529.74 368.159 1414.21 406.323C1260.04 459.529 1045.09 448.813 896.844 425.267C800.48 406.387 728.591 358.151 616.863 287.9C506.181 218.239 825.457 261.712 954.177 255.768C1044.36 251.805 1235.73 247.864 1158.76 195.114C1127.3 171.766 1106.62 159.203 1080 129.941C970.159 19.8656 1368.38 127.959 1474.51 91.9334C1526.56 70.4408 1596.95 74.7949 1625 61.6674C1718.98 28.081 1786.33 77.406 1789.84 71.9347" stroke="#CCCCCC"/>
<path d="M1791.94 542.921C1630.18 527.39 1450.16 587.63 1548.56 486.185C1576.62 452.787 1538.92 372.399 1426.65 408.891C1276.89 459.983 1068.16 449.005 924.296 425.655C830.794 406.694 761.323 359.356 653.14 290.678C545.972 222.573 856.073 264.303 980.855 258.009C1068.29 253.813 1253.88 249.64 1179.03 198.081C1148.35 175.06 1128.14 162.494 1102.2 133.692C995.485 26.4547 1381.94 130.942 1484.97 95.508C1535.53 74.0747 1603.92 77.8436 1631.28 64.6676C1722.64 31.6344 1788.22 79.0966 1791.94 73.3034" stroke="#CCCCCC"/>
<path d="M1794.04 543.571C1637.18 528.512 1462.5 586.673 1557.77 487.906C1584.84 455.125 1548.1 376.636 1439.1 411.457C1293.73 460.435 1091.24 449.195 951.749 426.041C861.107 406.999 794.054 360.559 689.417 293.454C585.764 226.905 886.688 266.892 1007.53 260.248C1092.21 255.819 1272.03 251.414 1199.3 201.046C1169.4 178.351 1149.65 165.782 1124.4 137.441C1020.81 33.0416 1395.49 133.923 1495.43 99.0804C1544.49 77.7063 1610.89 80.89 1637.57 67.6655C1726.3 35.1856 1790.11 80.7849 1794.04 74.6699" stroke="#CCCCCC"/>
<path d="M1796.14 544.221C1644.18 529.632 1474.85 585.714 1566.99 489.626C1593.06 457.462 1557.28 380.873 1451.54 414.022C1310.57 460.886 1114.31 449.384 979.202 426.426C891.421 407.303 826.787 361.761 725.694 296.23C625.556 231.237 917.305 269.48 1034.21 262.486C1116.13 257.824 1290.18 253.187 1219.57 204.011C1190.46 181.642 1171.17 169.07 1146.59 141.19C1046.14 39.6276 1409.05 136.903 1505.9 102.652C1553.46 81.3371 1617.86 83.9355 1643.85 70.6625C1729.97 38.7357 1792.01 82.4723 1796.14 76.0354" stroke="#CCCCCC"/>
<path d="M1798.24 544.868C1651.18 530.75 1487.19 584.752 1576.21 491.343C1601.28 459.796 1566.46 385.106 1463.99 416.584C1327.42 461.334 1137.38 449.57 1006.65 426.809C921.735 407.604 859.519 362.959 761.972 299.002C665.348 235.565 947.921 272.065 1060.89 264.721C1140.06 259.826 1308.33 254.957 1239.84 206.972C1211.51 184.93 1192.68 172.354 1168.79 144.935C1071.47 46.2105 1422.6 139.88 1516.36 106.22C1562.43 84.9647 1624.83 86.9779 1650.14 73.6564C1733.63 42.2829 1793.9 84.1566 1798.24 77.3979" stroke="#CCCCCC"/>
<path d="M1800.34 545.513C1658.19 531.865 1499.54 583.788 1585.43 493.058C1609.5 462.128 1575.65 389.337 1476.43 419.144C1344.26 461.78 1160.45 449.754 1034.11 427.189C952.05 407.903 892.252 364.156 798.25 301.772C705.141 239.891 978.538 274.647 1087.57 266.955C1163.98 261.826 1326.48 256.725 1260.11 209.931C1232.56 188.215 1214.2 175.636 1190.99 148.678C1096.79 52.7916 1436.16 142.855 1526.82 109.787C1571.39 88.5905 1631.8 90.0185 1656.42 76.6484C1737.29 45.8281 1795.79 85.839 1800.34 78.7585" stroke="#CCCCCC"/>
<path d="M1802.44 546.155C1665.19 532.978 1511.89 582.822 1594.65 494.771C1617.72 464.458 1584.83 393.566 1488.88 421.701C1361.11 462.224 1183.53 449.936 1061.56 427.566C982.365 408.2 924.985 365.351 834.529 304.54C744.935 244.215 1009.16 277.228 1114.25 269.185C1187.91 263.823 1344.64 258.491 1280.39 212.888C1253.61 191.499 1235.72 178.916 1213.19 152.419C1122.12 59.37 1449.72 145.828 1537.29 113.351C1580.36 92.2137 1638.76 93.0565 1662.71 79.6379C1740.96 49.3709 1797.69 87.5189 1802.44 80.1165" stroke="#CCCCCC"/>
<path d="M1804.55 546.795C1672.19 534.088 1524.23 581.853 1603.86 496.481C1625.95 466.784 1594.01 397.792 1501.32 424.256C1377.95 462.664 1206.6 450.114 1089.02 427.941C1012.68 408.493 957.719 366.542 870.808 307.305C784.728 248.536 1039.77 279.805 1140.93 271.413C1211.84 265.818 1362.79 260.254 1300.66 215.842C1274.67 194.779 1257.23 182.193 1235.39 156.157C1147.45 65.9456 1463.28 148.797 1547.75 116.912C1589.33 95.834 1645.73 96.0916 1669 82.6245C1744.62 52.9107 1799.58 89.1959 1804.55 81.4716" stroke="#CCCCCC"/>
<path d="M1806.65 547.431C1679.2 535.195 1536.58 580.881 1613.08 498.187C1634.17 469.108 1603.2 402.015 1513.77 426.807C1394.8 463.102 1229.67 450.29 1116.47 428.313C1043 408.784 990.453 367.731 907.088 310.067C824.522 252.854 1070.39 282.379 1167.61 273.637C1235.76 267.809 1380.94 262.013 1320.93 218.793C1295.72 198.056 1278.75 185.467 1257.59 159.892C1172.78 72.5181 1476.83 151.764 1558.22 120.47C1598.29 99.4511 1652.7 99.1236 1675.28 85.608C1748.29 56.4473 1801.48 90.8697 1806.65 82.8236" stroke="#CCCCCC"/>
<path d="M1808.75 548.063C1686.2 536.298 1548.93 579.904 1622.3 499.89C1642.39 471.427 1612.38 406.234 1526.22 429.354C1411.65 463.535 1252.75 450.461 1143.93 428.68C1073.31 409.07 1023.19 368.915 943.368 312.824C864.317 257.167 1101.01 284.949 1194.29 275.858C1259.69 269.797 1399.1 263.769 1341.2 221.739C1316.78 201.329 1300.27 188.737 1279.79 163.622C1198.11 79.0864 1490.39 154.726 1568.68 124.024C1607.26 103.064 1659.68 102.151 1681.57 88.5873C1751.95 59.9799 1803.37 92.5394 1808.75 84.1715" stroke="#CCCCCC"/>
<path d="M1810.85 548.692C1693.21 537.397 1561.28 578.924 1631.52 501.589C1650.62 473.743 1621.57 410.449 1538.67 431.898C1428.49 463.965 1275.82 450.629 1171.38 429.044C1103.63 409.353 1055.92 370.096 979.649 315.578C904.112 261.477 1131.63 287.516 1220.97 278.075C1283.62 271.781 1417.25 265.521 1361.48 224.682C1337.83 204.599 1321.79 192.003 1301.99 167.349C1223.44 85.6511 1503.95 157.685 1579.15 127.574C1616.23 106.674 1666.65 105.176 1687.86 91.5631C1755.62 63.5089 1805.27 94.2056 1810.85 85.5159" stroke="#CCCCCC"/>
<path d="M1812.96 549.316C1700.21 538.492 1573.63 577.94 1640.75 503.283C1658.84 476.054 1630.75 414.66 1551.11 434.437C1445.34 464.39 1298.9 450.792 1198.84 429.404C1133.95 409.631 1088.66 371.272 1015.93 318.328C943.908 265.783 1162.25 290.078 1247.65 280.287C1307.55 273.76 1435.41 267.268 1381.75 227.621C1358.89 207.864 1343.31 195.264 1324.19 171.072C1248.77 92.2113 1517.51 160.639 1589.61 131.119C1625.2 110.279 1673.62 108.195 1694.15 94.5343C1759.29 67.0333 1807.16 95.8672 1812.96 86.8556" stroke="#CCCCCC"/>
<path d="M1815.06 549.935C1707.22 539.582 1585.98 576.95 1649.97 504.973C1667.07 478.36 1639.94 418.865 1563.56 436.971C1462.19 464.81 1321.97 450.95 1226.3 429.758C1164.27 409.904 1121.4 372.443 1052.21 321.072C983.705 270.083 1192.87 292.635 1274.34 282.494C1331.48 275.734 1453.57 269.01 1402.03 230.554C1379.94 211.123 1364.83 198.521 1346.39 174.789C1274.1 98.7663 1531.07 163.588 1600.08 134.66C1634.17 113.878 1680.59 111.21 1700.44 97.5003C1762.95 70.5525 1809.06 97.5236 1815.06 88.1902" stroke="#CCCCCC"/>
<path d="M1817.17 550.548C1714.23 540.665 1598.33 575.954 1659.19 506.656C1675.29 480.66 1649.13 423.065 1576.02 439.499C1479.04 465.224 1345.05 451.102 1253.76 430.106C1194.59 410.171 1154.13 373.608 1088.5 323.81C1023.5 274.377 1223.49 295.185 1301.02 284.695C1355.41 277.702 1471.72 270.746 1422.31 233.482C1401 214.377 1386.35 201.771 1368.59 178.5C1299.43 105.315 1544.64 166.531 1610.55 138.194C1643.14 117.472 1687.57 114.219 1706.73 100.46C1766.62 74.0658 1810.96 99.1741 1817.17 89.5188" stroke="#CCCCCC"/>
<path d="M1819.27 551.153C1721.24 541.741 1610.68 574.951 1668.42 508.332C1683.52 482.953 1658.32 427.257 1588.47 442.02C1495.89 465.631 1368.13 451.247 1281.22 430.447C1224.91 410.431 1186.87 374.765 1124.78 326.541C1063.3 278.664 1254.12 297.729 1327.71 286.889C1379.34 279.662 1489.88 272.475 1442.59 236.402C1422.06 217.623 1407.87 205.014 1390.8 182.204C1324.77 111.857 1558.2 169.467 1621.02 141.722C1652.12 121.059 1694.54 117.22 1713.02 103.413C1770.29 77.5717 1812.86 100.817 1819.27 90.84" stroke="#CCCCCC"/>
<path d="M1821.38 551.712C1728.25 542.77 1623.04 573.901 1677.64 509.96C1691.75 485.199 1667.51 431.402 1600.92 444.493C1512.74 465.991 1391.21 451.344 1308.68 430.741C1255.23 410.644 1219.61 375.876 1161.07 329.225C1103.1 282.904 1284.74 300.225 1354.39 289.036C1403.27 281.576 1508.04 274.157 1462.87 239.275C1443.12 220.823 1429.4 208.21 1413 185.861C1350.1 118.352 1571.76 172.356 1631.49 145.202C1661.09 124.598 1701.52 120.174 1719.32 106.319C1773.96 81.0304 1814.76 102.413 1821.38 92.1141" stroke="#CCCCCC"/>
<path d="M1823.49 552.063C1735.26 543.592 1635.39 572.644 1686.87 511.382C1699.98 487.237 1676.7 435.34 1613.37 446.76C1529.6 466.144 1414.29 451.235 1336.14 430.828C1285.55 410.649 1252.35 376.779 1197.35 331.702C1142.9 286.937 1315.37 302.515 1381.08 290.975C1427.2 283.283 1526.2 275.632 1483.15 241.941C1464.18 223.815 1450.92 211.199 1435.21 189.311C1375.44 124.639 1585.33 175.037 1641.96 148.475C1670.07 127.93 1708.5 122.921 1725.61 109.017C1777.64 84.2823 1816.66 103.802 1823.49 93.1813" stroke="#CCCCCC"/>
<path d="M1825.6 552.416C1742.27 544.415 1647.75 571.387 1696.1 512.805C1708.21 489.277 1685.89 439.279 1625.83 449.027C1546.45 466.297 1437.37 451.126 1363.6 430.915C1315.88 410.655 1285.1 377.683 1233.64 334.179C1182.71 290.97 1345.99 304.805 1407.77 292.916C1451.14 284.99 1544.37 277.107 1503.43 244.607C1485.25 226.808 1472.45 214.189 1457.42 192.761C1400.78 130.927 1598.9 177.72 1652.44 151.748C1679.04 131.263 1715.48 125.669 1731.91 111.716C1781.31 87.5347 1818.57 105.192 1825.6 94.249" stroke="#CCCCCC"/>
<path d="M1827.72 552.768C1749.29 545.238 1660.11 570.131 1705.33 514.227C1716.44 491.316 1695.09 443.217 1638.29 451.294C1563.31 466.45 1460.46 451.017 1391.07 431.002C1346.2 410.662 1317.84 378.587 1269.93 336.657C1222.51 295.004 1376.62 307.095 1434.46 294.856C1475.08 286.697 1562.53 278.582 1523.71 247.273C1506.31 229.801 1493.98 217.178 1479.63 196.212C1426.12 137.216 1612.47 180.402 1662.91 155.022C1688.02 134.596 1722.46 128.416 1738.21 114.416C1784.99 90.7871 1820.48 106.581 1827.72 95.3168" stroke="#CCCCCC"/>
<path d="M1829.83 553.119C1756.3 546.06 1672.47 568.874 1714.56 515.649C1724.68 493.355 1704.28 447.156 1650.75 453.561C1580.17 466.603 1483.55 450.908 1418.54 431.089C1376.53 410.667 1350.59 379.491 1306.23 339.134C1262.32 299.037 1407.25 309.384 1461.16 296.796C1499.02 288.404 1580.7 280.057 1544 249.94C1527.38 232.793 1515.51 220.167 1501.84 199.662C1451.46 143.503 1626.04 183.083 1673.39 158.295C1697 137.928 1729.44 131.164 1744.51 117.114C1788.67 94.039 1822.38 107.97 1829.83 96.384" stroke="#CCCCCC"/>
<path d="M1831.95 553.472C1763.32 546.883 1684.83 567.618 1723.8 517.072C1732.92 495.394 1713.49 451.095 1663.21 455.829C1597.03 466.757 1506.64 450.8 1446.01 431.177C1406.87 410.674 1383.34 380.396 1342.52 341.612C1302.13 303.071 1437.89 311.674 1487.85 298.737C1522.96 290.111 1598.87 281.533 1564.29 252.606C1548.45 235.787 1537.05 223.158 1524.06 203.113C1476.8 149.792 1639.61 185.766 1683.87 161.569C1705.99 141.262 1736.43 133.912 1750.81 119.814C1792.35 97.2919 1824.3 109.36 1831.95 97.4522" stroke="#CCCCCC"/>
<path d="M1834.07 553.823C1770.35 547.705 1697.2 566.361 1733.04 518.493C1741.16 497.433 1722.69 455.033 1675.68 458.095C1613.9 466.909 1529.73 450.691 1473.48 431.264C1437.2 410.68 1416.1 381.299 1378.82 344.089C1341.95 307.104 1468.53 313.964 1514.55 300.676C1546.91 291.818 1617.04 283.008 1584.58 255.272C1569.52 238.779 1558.58 226.147 1546.28 206.563C1502.15 156.08 1653.19 188.448 1694.36 164.842C1714.98 144.594 1743.42 136.659 1757.12 122.513C1796.03 100.544 1826.21 110.749 1834.07 98.5194" stroke="#CCCCCC"/>
<path d="M1836.2 554.175C1777.38 548.528 1709.57 565.104 1742.28 519.916C1749.41 499.472 1731.9 458.971 1688.15 460.363C1630.77 467.063 1552.83 450.582 1500.96 431.351C1467.54 410.686 1448.86 382.203 1415.13 346.566C1381.76 311.137 1499.17 316.254 1541.26 302.617C1570.86 293.525 1635.22 284.483 1604.88 257.939C1590.6 241.772 1580.13 229.136 1568.5 210.013C1527.51 162.368 1666.77 191.13 1704.85 168.116C1723.97 147.927 1750.41 139.407 1763.43 125.212C1799.72 103.796 1828.13 112.139 1836.2 99.5872" stroke="#CCCCCC"/>
<path d="M1838.33 554.527C1784.41 549.351 1721.95 563.848 1751.53 521.338C1757.66 501.511 1741.11 462.91 1700.63 462.63C1647.65 467.216 1575.93 450.473 1528.45 431.439C1497.89 410.692 1481.62 383.107 1451.44 349.044C1421.59 315.171 1529.82 318.544 1567.97 304.557C1594.82 295.232 1653.41 285.958 1625.19 260.605C1611.69 244.765 1601.68 232.126 1590.74 213.463C1552.87 168.656 1680.36 193.812 1715.34 171.39C1732.97 151.26 1757.42 142.154 1769.75 127.911C1803.42 107.049 1830.06 113.529 1838.33 100.655" stroke="#CCCCCC"/>
<path d="M1840.47 554.879C1791.45 550.173 1734.34 562.591 1760.79 522.761C1765.93 503.551 1750.34 466.849 1713.11 464.897C1664.53 467.369 1599.05 450.364 1555.94 431.526C1528.24 410.698 1514.39 384.011 1487.75 351.521C1461.42 319.204 1560.48 320.834 1594.69 306.497C1618.78 296.939 1671.6 287.434 1645.5 263.272C1632.78 247.758 1623.23 235.115 1612.97 216.914C1578.23 174.944 1693.96 196.494 1725.85 174.663C1741.97 154.593 1764.42 144.902 1776.08 130.61C1807.12 110.301 1831.99 114.918 1840.47 101.723" stroke="#CCCCCC"/>
<path d="M1842.62 555.231C1798.51 550.996 1746.73 561.334 1770.06 524.183C1774.2 505.59 1759.57 470.787 1725.61 467.164C1681.42 467.522 1622.17 450.255 1583.45 431.614C1558.61 410.705 1547.18 384.915 1524.08 353.998C1501.27 323.238 1591.14 323.124 1621.42 308.437C1642.76 298.647 1689.8 288.909 1665.82 265.938C1653.88 250.751 1644.8 238.105 1635.22 220.364C1603.61 181.232 1707.57 199.177 1736.36 177.937C1750.99 157.926 1771.44 147.65 1782.41 133.309C1810.84 113.553 1833.93 116.308 1842.62 102.79" stroke="#CCCCCC"/>
<path d="M1844.79 555.583C1805.57 551.818 1759.14 560.077 1779.34 525.605C1782.48 507.629 1768.81 474.725 1738.12 469.431C1698.33 467.675 1645.3 450.146 1610.96 431.7C1588.99 410.71 1579.97 385.819 1560.42 356.475C1541.12 327.27 1621.82 325.413 1648.16 310.377C1666.75 300.353 1708.02 290.384 1686.15 268.604C1675 253.743 1666.38 241.094 1657.48 223.814C1629 187.52 1721.19 201.858 1746.89 181.21C1760.02 161.258 1778.48 150.397 1788.76 136.008C1814.56 116.805 1835.89 117.697 1844.79 103.858" stroke="#CCCCCC"/>
<path d="M1846.97 555.935C1812.66 552.641 1771.57 558.821 1788.64 527.027C1790.79 509.668 1778.08 478.664 1750.65 471.698C1715.26 467.828 1668.46 450.037 1638.5 431.788C1619.38 410.717 1612.79 386.723 1596.79 358.953C1581 331.304 1652.52 327.703 1674.92 312.317C1690.76 302.06 1726.26 291.859 1706.51 271.271C1696.14 256.736 1687.98 244.083 1679.76 227.265C1654.41 193.808 1734.83 204.541 1757.43 184.484C1769.07 164.591 1785.53 153.145 1795.13 138.707C1818.31 120.058 1837.87 119.086 1846.97 104.925" stroke="#CCCCCC"/>
<path d="M1849.19 556.287C1819.77 553.463 1784.03 557.564 1797.97 528.449C1799.12 511.707 1787.38 482.603 1763.21 473.965C1732.22 467.982 1691.65 449.928 1666.07 431.875C1649.81 410.723 1645.64 387.627 1633.18 361.43C1620.9 335.337 1683.25 329.993 1701.72 314.258C1714.79 303.768 1744.52 293.335 1726.9 273.937C1717.3 259.729 1709.61 247.073 1702.08 230.715C1679.86 200.096 1748.5 207.223 1768.01 187.758C1778.15 167.924 1792.61 155.892 1801.53 141.406C1822.09 123.31 1839.88 120.476 1849.19 105.993" stroke="#CCCCCC"/>
<path d="M1851.45 556.639C1826.94 554.286 1796.54 556.308 1807.35 529.872C1807.51 513.746 1796.72 486.541 1775.81 476.232C1749.23 468.135 1714.88 449.82 1693.68 431.963C1680.29 410.729 1678.53 388.531 1669.62 363.908C1660.86 339.371 1714.03 332.283 1728.56 316.198C1738.88 305.475 1762.84 294.81 1747.33 276.604C1738.52 262.722 1731.29 250.063 1724.44 234.166C1705.34 206.384 1762.22 209.905 1778.63 191.031C1787.28 171.257 1799.74 158.64 1807.98 144.106C1825.91 126.562 1841.93 121.866 1851.45 107.061" stroke="#CCCCCC"/>
<path d="M1853.79 556.991C1834.19 555.109 1809.13 555.051 1816.81 531.294C1815.97 515.785 1806.15 490.48 1788.51 478.499C1766.32 468.288 1738.2 449.711 1721.38 432.05C1710.85 410.735 1711.51 389.435 1706.14 366.385C1700.9 343.404 1744.9 334.573 1755.48 318.138C1763.05 307.182 1781.23 296.285 1767.85 279.27C1759.81 265.715 1753.05 253.052 1746.88 237.616C1730.92 212.673 1776.02 212.587 1789.34 194.305C1796.49 174.59 1806.96 161.388 1814.51 146.805C1829.82 129.815 1844.07 123.255 1853.79 108.129" stroke="#CCCCCC"/>
<path d="M1856.3 557.343C1841.6 555.931 1821.89 553.794 1826.44 532.716C1824.6 517.824 1815.74 494.418 1801.36 480.766C1783.57 468.441 1761.68 449.602 1749.25 432.137C1741.57 410.741 1744.65 390.339 1742.83 368.862C1741.1 347.437 1775.92 336.862 1782.57 320.078C1787.39 308.889 1799.8 297.76 1788.53 281.936C1781.28 268.707 1774.98 256.041 1769.49 241.066C1756.66 218.96 1789.99 215.269 1800.22 197.578C1805.87 177.922 1814.34 164.135 1821.21 149.503C1833.9 133.067 1846.37 124.644 1856.3 109.196" stroke="#CCCCCC"/>
<path d="M1863.46 557.695C1853.66 556.754 1839.29 552.538 1840.72 534.139C1837.88 519.864 1829.98 498.357 1818.86 483.033C1805.47 468.595 1789.81 449.493 1781.76 432.225C1776.94 410.748 1782.44 391.244 1784.16 371.34C1785.95 351.471 1811.6 339.153 1814.3 322.019C1816.37 310.596 1823 299.236 1813.86 284.603C1807.39 271.701 1801.55 259.031 1796.74 244.517C1787.04 225.249 1808.6 217.952 1815.74 200.852C1819.89 181.256 1826.36 166.883 1832.55 152.203C1842.61 136.32 1853.32 126.034 1863.46 110.264" stroke="#CCCCCC"/>
<path d="M1873.54 558.047C1868.64 557.576 1859.61 551.281 1857.91 535.561C1854.08 521.903 1847.14 502.295 1839.29 485.3C1830.29 468.747 1820.86 449.384 1817.19 432.312C1815.24 410.753 1823.15 392.147 1828.42 373.817C1833.72 355.504 1850.19 341.442 1848.96 323.959C1848.27 312.303 1849.14 300.711 1842.11 287.269C1836.42 274.693 1831.04 262.02 1826.92 247.967C1820.34 231.537 1830.14 220.633 1834.18 204.125C1836.84 184.588 1841.31 169.63 1846.81 154.902C1854.26 139.572 1863.2 127.423 1873.54 111.331" stroke="#CCCCCC"/>
</svg>
